<svg width="42" height="42" viewBox="0 0 42 42" fill="none" xmlns="http://www.w3.org/2000/svg">
<path opacity="0.15" d="M24.4199 41.1003C31.766 41.1003 37.7211 40.4435 37.7211 39.6333C37.7211 38.8231 31.766 38.1663 24.4199 38.1663C17.0739 38.1663 11.1188 38.8231 11.1188 39.6333C11.1188 40.4435 17.0739 41.1003 24.4199 41.1003Z" fill="#45413C"/>
<path d="M34.5289 14.0099L34.4225 17.2373L22.3982 6.18589C21.4405 5.30569 19.8444 5.11009 18.7803 5.89249C17.5034 6.87048 17.5034 8.53308 18.5675 9.51108L16.8649 7.94628C15.8009 6.96828 13.9919 6.77268 12.8214 7.75068C11.6509 8.72868 11.5445 10.4891 12.715 11.5649L12.6086 11.4671C11.7573 10.6847 10.374 10.4891 9.4163 10.9781C7.82016 11.8583 7.60734 13.7165 8.88426 14.7923L12.0765 17.7263C11.1188 16.8461 9.52271 16.8461 8.67144 17.9219C7.92657 18.8021 8.03298 20.0734 8.88426 20.8558L22.2918 33.2764C26.229 36.895 32.6135 36.895 36.5507 33.1786C39.5301 30.3424 41.1263 26.5282 40.807 22.6162L40.3814 10.7825C40.3814 10.1957 39.8493 9.80448 39.2109 9.80448C36.6571 9.80448 34.6353 11.6627 34.5289 14.0099Z" fill="#FFE500"/>
<path d="M34.3159 17.1395L22.3981 6.18589C21.4404 5.30569 19.8443 5.11009 18.7802 5.89249C17.6097 6.77268 17.5032 8.23968 18.3545 9.31548C18.4609 9.21768 18.5673 9.02208 18.7802 8.92428C19.8443 8.14188 21.4404 8.33748 22.3981 9.21768L32.7198 18.7043L34.3159 17.1395Z" fill="#FFF48C"/>
<path d="M40.4876 13.8142L40.3812 10.7824C40.3812 10.1956 39.8491 9.80444 39.2107 9.80444C36.6568 9.80444 34.5286 11.6626 34.5286 14.0098L34.4222 17.2372L34.5286 17.1394C34.6351 14.7922 36.7632 12.934 39.2107 12.934C39.8491 12.8362 40.4876 13.2274 40.4876 13.8142Z" fill="#FFF48C"/>
<path d="M34.5289 14.0099L34.4225 17.2373L22.3982 6.18589C21.4405 5.30569 19.8444 5.11009 18.7803 5.89249C17.5034 6.87048 17.5034 8.53308 18.5675 9.51108L16.8649 7.94628C15.8009 6.96828 13.9919 6.77268 12.8214 7.75068C11.6509 8.72868 11.5445 10.4891 12.715 11.5649L12.6086 11.4671C11.7573 10.6847 10.374 10.4891 9.4163 10.9781C7.82016 11.8583 7.60734 13.7165 8.88426 14.7923L12.0765 17.7263C11.1188 16.8461 9.52271 16.8461 8.67144 17.9219C7.92657 18.8021 8.03298 20.0734 8.88426 20.8558L22.2918 33.2764C26.229 36.895 32.6135 36.895 36.5507 33.1786C39.5301 30.3424 41.1263 26.5282 40.807 22.6162L40.3814 10.7825C40.3814 10.1957 39.8493 9.80448 39.2109 9.80448C36.6571 9.80448 34.6353 11.6627 34.5289 14.0099Z" stroke="#45413C" stroke-miterlimit="10" stroke-linecap="round" stroke-linejoin="round"/>
<path d="M12.1827 17.824L18.6737 23.3986" stroke="#45413C" stroke-miterlimit="10" stroke-linecap="round" stroke-linejoin="round"/>
<path d="M12.7147 11.5647L22.1851 20.2689" stroke="#45413C" stroke-miterlimit="10" stroke-linecap="round" stroke-linejoin="round"/>
<path d="M18.5673 9.51099L26.2287 16.5526" stroke="#45413C" stroke-miterlimit="10" stroke-linecap="round" stroke-linejoin="round"/>
<path d="M34.4224 17.2371L30.5917 20.7579C28.1443 23.0072 28.1443 26.7236 30.5917 29.0708" stroke="#45413C" stroke-miterlimit="10" stroke-linecap="round" stroke-linejoin="round"/>
<path d="M24.5264 3.74048C24.5264 3.74048 26.8674 3.93608 29.102 5.69647C31.1237 7.26127 31.975 9.60846 31.975 9.60846" stroke="#45413C" stroke-miterlimit="10" stroke-linecap="round" stroke-linejoin="round"/>
<path d="M25.1648 1.1001C25.1648 1.1001 28.1443 1.3935 30.8045 3.44729C33.3583 5.40329 34.316 8.23948 34.316 8.23948" stroke="#45413C" stroke-miterlimit="10" stroke-linecap="round" stroke-linejoin="round"/>
<path d="M3.77658 18.8018C3.77658 18.8018 3.45735 20.9534 4.62786 23.3983C5.79836 25.6477 8.03295 26.9191 8.03295 26.9191" stroke="#45413C" stroke-miterlimit="10" stroke-linecap="round" stroke-linejoin="round"/>
<path d="M0.90345 18.7041C0.90345 18.7041 0.477814 21.4425 1.96754 24.3765C3.35086 27.1149 6.1175 28.7775 6.1175 28.7775" stroke="#45413C" stroke-miterlimit="10" stroke-linecap="round" stroke-linejoin="round"/>
</svg>
